<svg xmlns="http://www.w3.org/2000/svg" xmlns:xlink="http://www.w3.org/1999/xlink" id="Layer_1" x="0" y="0" viewBox="0 0 879 879" xml:space="preserve"><style>.st2{fill:#fff}</style><g id="Layer_1-2"><path d="M753.3 500.1c0 177.7-144 313-321.7 313S110 677.8 110 500.1s144-321.7 321.6-321.7 321.7 144.1 321.7 321.7z" fill="#ffc30d"/><path d="M431.6 859.3C191.5 859.3 3.4 675.7 3.4 441.4c0-236.1 192.1-428.2 428.2-428.2s428.2 192.1 428.2 428.2c0 234.3-188.1 417.9-428.2 417.9z" fill="#fd0"/><path class="st2" d="M431.6 97.4c-198.4 0-359.8 161.4-359.8 359.8 0 195.7 158.1 349 359.8 349s359.8-153.2 359.8-349c0-198.4-161.4-359.8-359.8-359.8z"/><path d="M434.5 78C236.1 78 74.7 239.4 74.7 437.8c0 195.7 158.1 349 359.8 349s359.8-153.3 359.8-349C794.4 239.4 633 78 434.5 78z" fill="#f0a700"/><path d="M431.6 90.8c-198.4 0-359.8 161.4-359.8 359.8 0 195.7 158.1 349 359.8 349s359.8-153.3 359.8-349c0-198.4-161.4-359.8-359.8-359.8z" fill="#ffc000"/><path d="M434.1 803.8c-198.2-1-358-162.5-357-360.7s162.5-358 360.7-357c143.3.7 272.4 86.7 328.4 218.6 77 183.1-9 393.9-192.1 470.9-44.2 18.7-91.9 28.3-140 28.2zm0-710.5c-94.1 0-182.7 36.5-249.2 102.9S81.7 350.7 81.7 444.5s36.7 182 103.2 248.4S340 795.8 434.1 795.8s182.7-36.5 249.2-102.9 103.2-154.5 103.2-248.4-36.6-182-103.2-248.4-155-102.8-249.2-102.8z" opacity=".72" fill="#d89309"/><defs><ellipse id="SVGID_1_" cx="439" cy="441.1" rx="355.7" ry="354.2"/></defs><clipPath id="SVGID_2_"><use xlink:href="#SVGID_1_" overflow="visible"/></clipPath><g clip-path="url(#SVGID_2_)"><path d="M829.3 319.1L560.2 49.9c-66.6-66.6-174.5-66.6-241.1 0L49.9 319.1c-66.5 66.6-66.5 174.4 0 241l269.2 269.2c66.5 66.6 174.5 66.6 241 0l269.2-269.2c66.6-66.5 66.6-174.4 0-241zM660.4 458.5S512.9 621.4 375.3 773.6c24.7-90.5 59.1-215.5 68.2-246.6-1.3-7.7-8.6-13.9-18-13.9h-159c-49.4 0-77.6-49.1-51-84.5 7.1-7.8 14.7-16.2 22.7-25 34.6-38.1 185.7-204.2 270.7-297.8-23.6 81.5-63 215.3-73.2 250.3 1.3 7.7 8.6 13.9 18 13.9h159c51.4-.1 79.9 52.9 47.7 88.5z" fill="#ffd60d"/><path d="M266.5 513c-49.4 0-77.6-49.1-51-84.5 7.1-7.8 14.7-16.2 22.7-25 34.6-38.1 185.7-204.2 270.7-297.8-23.6 81.5-63 215.3-73.2 250.3 1.3 7.7 8.6 13.9 18 13.9h159c181.9 0 209.3 165.1 91.5 315.3l125-125c66.5-66.6 66.5-174.4 0-241l-269-269.3c-66.6-66.6-174.5-66.6-241.1 0L189.8 179.2C48.5 320.5 81.5 513 266.5 513z" opacity=".91" fill="#f9b110"/></g></g><path class="st2" d="M508.9 105.7L224 417c-36.7 40.1-15.1 96.7 39.2 95.3l164.4 1.5c8.3 0 15 6.8 14.9 15.1 0 1.3-.2 2.6-.5 3.9l-66 241.1 282.6-306.4c35.4-38.4 8.2-100.6-44.1-100.6l-162.2 3c-8.3.2-15.1-6.4-15.3-14.7 0-1.5.2-3 .6-4.5 17.3-60.8 69.1-242.8 71.3-245z"/></svg>